<?xml version="1.0" encoding="UTF-8" standalone="no"?>
<!DOCTYPE svg PUBLIC "-//W3C//DTD SVG 20010904//EN"
              "http://www.w3.org/TR/2001/REC-SVG-20010904/DTD/svg10.dtd">

<svg xmlns="http://www.w3.org/2000/svg"
     width="196.766mm" height="150.538mm"
     viewBox="0 0 2324 1778">
  <path id="Selection"
        fill="white" stroke="black" stroke-width="0"
        d="M 214.00,679.00
           C 224.43,647.76 254.59,583.30 269.74,552.00
             269.74,552.00 327.22,437.00 327.22,437.00
             327.22,437.00 343.42,405.00 343.42,405.00
             343.42,405.00 367.31,359.00 367.31,359.00
             367.31,359.00 433.31,235.00 433.31,235.00
             433.31,235.00 519.30,78.00 519.30,78.00
             519.30,78.00 540.30,40.00 540.30,40.00
             542.94,35.20 547.62,28.84 545.26,23.09
             543.24,18.16 535.77,15.79 531.00,14.65
             516.31,11.16 503.88,11.98 489.00,12.00
             484.92,12.01 478.80,12.27 475.00,13.71
             470.50,15.42 451.20,30.48 446.00,34.37
             446.00,34.37 408.39,64.17 408.39,64.17
             405.54,67.42 397.28,83.22 394.69,88.00
             394.69,88.00 367.70,137.00 367.70,137.00
             316.94,229.44 267.09,322.29 218.74,416.00
             193.46,465.00 167.71,513.88 144.69,564.00
             144.69,564.00 127.31,601.00 127.31,601.00
             127.31,601.00 104.58,653.00 104.58,653.00
             96.15,672.43 87.38,691.67 81.28,712.00
             77.65,724.09 74.91,735.36 73.92,748.00
             73.34,755.39 73.03,762.55 77.65,768.99
             81.77,774.74 87.49,777.03 94.00,778.96
             106.70,782.74 123.68,782.15 137.00,782.00
             153.94,781.80 183.01,774.55 198.00,766.68
             214.68,757.93 228.98,745.59 244.00,734.37
             244.00,734.37 276.00,712.42 276.00,712.42
             316.81,687.02 362.12,675.44 410.00,676.00
             410.00,676.00 420.00,676.91 420.00,676.91
             449.97,679.01 479.47,686.13 504.00,704.38
             514.98,712.54 521.58,719.10 529.87,730.00
             533.07,734.22 539.89,745.80 543.10,748.01
             550.40,753.01 570.82,754.39 580.00,754.91
             584.29,755.15 586.13,754.35 590.00,754.09
             608.30,752.84 626.94,750.21 644.00,742.99
             651.84,739.67 662.43,733.09 659.03,723.00
             656.56,715.67 647.49,704.02 642.41,698.00
             618.61,669.79 580.12,653.37 545.00,644.63
             514.82,637.12 482.05,633.05 451.00,633.00
             451.00,633.00 437.00,632.03 437.00,632.03
             437.00,632.03 423.00,633.00 423.00,633.00
             356.08,633.10 274.52,650.45 214.00,679.00 Z
           M 1954.00,1054.00
           C 1958.97,1080.42 1964.82,1105.15 1975.43,1130.00
             2002.79,1194.13 2049.58,1249.60 2103.00,1293.75
             2117.04,1305.36 2154.00,1333.99 2169.00,1341.74
             2174.50,1344.59 2180.80,1347.91 2187.00,1348.70
             2189.92,1349.06 2193.08,1348.99 2194.40,1345.85
             2195.73,1342.70 2194.00,1337.93 2192.69,1335.00
             2189.31,1327.48 2183.64,1319.94 2177.96,1314.00
             2167.50,1303.06 2155.44,1293.62 2143.00,1285.02
             2143.00,1285.02 2124.00,1271.54 2124.00,1271.54
             2115.80,1264.82 2105.58,1253.53 2099.13,1245.00
             2080.35,1220.15 2066.45,1191.22 2058.89,1161.00
             2051.08,1129.74 2048.26,1090.59 2034.68,1062.00
             2020.04,1031.19 1993.00,1006.24 1965.00,987.67
             1945.51,974.74 1922.98,963.47 1899.00,964.01
             1887.02,964.29 1875.27,967.91 1864.00,971.67
             1834.34,981.55 1805.43,999.58 1780.00,1017.58
             1719.12,1060.65 1661.03,1108.38 1597.00,1146.80
             1572.07,1161.76 1540.27,1178.97 1512.00,1185.87
             1506.07,1187.32 1486.41,1191.18 1481.11,1190.40
             1476.43,1189.71 1475.62,1181.78 1474.58,1178.00
             1474.58,1178.00 1465.92,1136.00 1465.92,1136.00
             1456.24,1077.53 1454.26,1022.43 1418.58,972.00
             1404.33,951.86 1386.96,934.92 1368.00,919.25
             1338.88,895.19 1305.56,877.55 1267.00,878.00
             1234.43,878.38 1197.40,896.53 1170.00,913.00
             1127.46,938.58 1088.29,969.64 1051.00,1002.28
             1051.00,1002.28 1011.00,1038.28 1011.00,1038.28
             1011.00,1038.28 960.00,1085.00 960.00,1085.00
             963.85,1065.86 970.77,1046.73 971.00,1027.00
             971.00,1027.00 971.00,1006.00 971.00,1006.00
             970.94,968.67 949.99,936.04 926.28,909.00
             914.77,895.87 901.63,884.49 888.00,873.60
             835.06,831.31 779.01,808.31 712.00,799.28
             712.00,799.28 682.00,796.00 682.00,796.00
             682.00,796.00 673.00,796.00 673.00,796.00
             673.00,796.00 661.00,795.00 661.00,795.00
             661.00,795.00 616.00,795.00 616.00,795.00
             616.00,795.00 597.00,796.00 597.00,796.00
             597.00,796.00 587.00,796.91 587.00,796.91
             587.00,796.91 551.00,800.72 551.00,800.72
             517.55,805.12 484.43,811.97 452.00,821.29
             331.52,855.92 222.22,918.31 138.85,1013.00
             111.34,1044.24 87.38,1078.76 68.75,1116.00
             55.89,1141.73 45.17,1168.87 44.04,1198.00
             43.86,1202.55 44.42,1203.88 44.83,1208.00
             47.68,1236.46 59.65,1256.39 77.75,1278.00
             88.89,1291.30 103.13,1303.48 117.00,1313.87
             151.97,1340.06 188.58,1357.10 232.00,1363.13
             232.00,1363.13 251.00,1365.00 251.00,1365.00
             251.00,1365.00 268.00,1365.99 268.00,1365.99
             268.00,1365.99 289.00,1365.00 289.00,1365.00
             303.46,1364.83 333.48,1359.56 348.00,1356.12
             467.22,1327.85 555.57,1242.71 617.20,1140.00
             634.68,1110.86 649.05,1082.41 662.01,1051.00
             662.01,1051.00 670.74,1028.00 670.74,1028.00
             672.21,1023.46 674.29,1019.99 673.80,1015.00
             673.03,1007.13 666.23,998.79 661.27,993.00
             655.19,985.91 647.92,980.08 641.00,973.83
             631.02,964.81 621.33,955.71 610.00,948.34
             603.63,944.20 587.71,935.67 580.22,940.17
             576.98,942.12 575.25,948.53 573.95,952.00
             573.95,952.00 562.42,980.00 562.42,980.00
             549.46,1010.31 531.14,1045.31 513.31,1073.00
             450.44,1170.64 360.71,1254.16 243.00,1275.42
             243.00,1275.42 205.00,1280.09 205.00,1280.09
             205.00,1280.09 195.00,1281.00 195.00,1281.00
             195.00,1281.00 169.00,1281.00 169.00,1281.00
             169.00,1281.00 159.00,1280.09 159.00,1280.09
             155.41,1279.84 146.13,1279.72 143.31,1277.83
             140.57,1275.98 140.95,1271.92 141.01,1269.00
             141.48,1248.01 151.03,1223.91 159.69,1205.00
             181.52,1157.33 211.35,1118.17 246.91,1080.00
             246.91,1080.00 256.00,1070.00 256.00,1070.00
             256.00,1070.00 271.00,1055.91 271.00,1055.91
             288.38,1039.72 305.96,1024.17 325.00,1009.89
             398.12,955.05 487.79,915.28 577.00,895.58
             612.80,887.67 649.36,881.56 686.00,879.96
             686.00,879.96 697.00,878.98 697.00,878.98
             697.00,878.98 713.00,878.98 713.00,878.98
             713.00,878.98 724.00,878.00 724.00,878.00
             724.00,878.00 747.00,879.00 747.00,879.00
             772.27,879.04 802.42,882.16 827.00,888.13
             827.00,888.13 855.00,896.00 855.00,896.00
             858.43,897.14 864.92,898.97 867.35,901.50
             870.00,904.25 871.24,910.29 872.00,914.00
             874.28,925.19 875.13,935.60 875.00,947.00
             874.79,964.51 869.86,986.16 865.00,1003.00
             855.28,1036.73 840.60,1068.84 826.72,1101.00
             817.33,1122.76 798.92,1158.51 804.50,1182.00
             809.69,1203.82 833.36,1224.00 850.00,1237.75
             862.42,1248.01 875.97,1258.33 891.00,1264.40
             896.33,1266.55 905.28,1269.23 911.00,1268.82
             926.80,1267.67 942.10,1258.25 955.00,1249.67
             979.91,1233.09 1000.90,1214.16 1023.00,1194.17
             1092.06,1131.69 1159.00,1066.89 1235.00,1012.58
             1258.38,995.87 1286.68,979.11 1314.00,970.00
             1320.99,967.67 1340.15,962.18 1346.96,962.43
             1353.15,962.66 1354.41,976.07 1355.40,981.00
             1355.40,981.00 1365.73,1043.00 1365.73,1043.00
             1370.88,1078.70 1377.15,1114.99 1392.31,1148.00
             1408.91,1184.16 1444.13,1221.56 1477.00,1243.49
             1502.93,1260.78 1533.49,1273.27 1565.00,1273.99
             1569.90,1274.10 1571.46,1273.62 1576.00,1273.17
             1616.38,1269.13 1653.61,1251.04 1688.00,1230.40
             1755.87,1189.68 1815.86,1137.53 1882.00,1094.34
             1882.00,1094.34 1926.00,1067.31 1926.00,1067.31
             1926.00,1067.31 1954.00,1054.00 1954.00,1054.00 Z
           M 901.00,1249.00
           C 901.00,1249.00 901.00,1254.00 901.00,1254.00
             901.00,1254.00 901.00,1249.00 901.00,1249.00 Z
           M 16.00,1461.00
           C 17.26,1469.14 30.22,1502.52 34.00,1512.00
             35.54,1515.86 39.66,1527.96 42.41,1530.15
             44.64,1531.91 53.79,1533.52 57.00,1534.21
             67.80,1536.54 78.59,1538.25 89.00,1542.05
             89.00,1542.05 218.00,1590.40 218.00,1590.40
             237.27,1598.11 268.43,1611.06 286.00,1620.86
             291.33,1623.84 304.86,1630.76 303.30,1638.00
             301.57,1646.03 287.62,1656.40 281.00,1660.98
             266.06,1671.29 248.13,1682.54 231.00,1688.56
             224.62,1690.80 221.01,1689.43 211.00,1693.05
             194.83,1698.91 173.86,1711.08 158.00,1719.26
             158.00,1719.26 143.00,1727.00 143.00,1727.00
             146.51,1734.20 154.03,1745.05 158.67,1752.00
             161.19,1755.78 164.21,1761.27 168.09,1763.59
             177.23,1769.03 189.02,1766.77 199.00,1766.09
             199.00,1766.09 265.00,1761.17 265.00,1761.17
             265.00,1761.17 312.00,1757.91 312.00,1757.91
             312.00,1757.91 378.00,1752.91 378.00,1752.91
             378.00,1752.91 411.00,1750.09 411.00,1750.09
             411.00,1750.09 554.00,1739.09 554.00,1739.09
             554.00,1739.09 688.00,1728.91 688.00,1728.91
             688.00,1728.91 720.00,1726.09 720.00,1726.09
             720.00,1726.09 795.00,1720.17 795.00,1720.17
             795.00,1720.17 828.00,1717.83 828.00,1717.83
             828.00,1717.83 878.00,1713.83 878.00,1713.83
             878.00,1713.83 921.00,1710.09 921.00,1710.09
             921.00,1710.09 1019.00,1702.17 1019.00,1702.17
             1019.00,1702.17 1080.00,1697.17 1080.00,1697.17
             1080.00,1697.17 1124.00,1693.83 1124.00,1693.83
             1124.00,1693.83 1296.00,1679.17 1296.00,1679.17
             1296.00,1679.17 1397.00,1670.83 1397.00,1670.83
             1397.00,1670.83 1694.00,1644.17 1694.00,1644.17
             1694.00,1644.17 1811.00,1633.17 1811.00,1633.17
             1811.00,1633.17 1852.00,1629.28 1852.00,1629.28
             1852.00,1629.28 1899.00,1624.83 1899.00,1624.83
             1899.00,1624.83 1968.00,1617.83 1968.00,1617.83
             1968.00,1617.83 2075.00,1606.16 2075.00,1606.16
             2075.00,1606.16 2200.00,1591.13 2200.00,1591.13
             2200.00,1591.13 2271.00,1580.59 2271.00,1580.59
             2271.00,1580.59 2290.00,1577.20 2290.00,1577.20
             2292.69,1576.66 2296.49,1576.19 2298.61,1574.42
             2301.14,1572.30 2302.92,1567.07 2304.30,1564.00
             2307.23,1557.52 2312.46,1546.55 2314.00,1540.00
             2282.78,1521.27 2243.45,1520.06 2208.00,1520.00
             2208.00,1520.00 2191.00,1519.00 2191.00,1519.00
             2191.00,1519.00 2138.00,1518.00 2138.00,1518.00
             2138.00,1518.00 2122.00,1517.00 2122.00,1517.00
             2122.00,1517.00 2103.00,1517.00 2103.00,1517.00
             2103.00,1517.00 2087.00,1516.00 2087.00,1516.00
             2087.00,1516.00 2068.00,1516.00 2068.00,1516.00
             2068.00,1516.00 2052.00,1515.00 2052.00,1515.00
             2052.00,1515.00 2033.00,1515.00 2033.00,1515.00
             2033.00,1515.00 2016.00,1514.00 2016.00,1514.00
             2016.00,1514.00 1927.00,1512.00 1927.00,1512.00
             1927.00,1512.00 1911.00,1511.00 1911.00,1511.00
             1911.00,1511.00 1892.00,1511.00 1892.00,1511.00
             1892.00,1511.00 1875.00,1510.00 1875.00,1510.00
             1875.00,1510.00 1855.00,1510.00 1855.00,1510.00
             1855.00,1510.00 1840.00,1509.00 1840.00,1509.00
             1840.00,1509.00 1752.00,1507.00 1752.00,1507.00
             1752.00,1507.00 1735.00,1506.00 1735.00,1506.00
             1735.00,1506.00 1647.00,1504.00 1647.00,1504.00
             1647.00,1504.00 1632.00,1503.00 1632.00,1503.00
             1632.00,1503.00 1612.00,1503.00 1612.00,1503.00
             1612.00,1503.00 1596.00,1502.00 1596.00,1502.00
             1596.00,1502.00 1577.00,1502.00 1577.00,1502.00
             1577.00,1502.00 1561.00,1501.00 1561.00,1501.00
             1561.00,1501.00 1542.00,1501.00 1542.00,1501.00
             1542.00,1501.00 1526.00,1500.00 1526.00,1500.00
             1526.00,1500.00 1507.00,1500.00 1507.00,1500.00
             1507.00,1500.00 1491.00,1499.00 1491.00,1499.00
             1491.00,1499.00 1472.00,1499.00 1472.00,1499.00
             1472.00,1499.00 1455.00,1498.00 1455.00,1498.00
             1455.00,1498.00 1435.00,1498.00 1435.00,1498.00
             1435.00,1498.00 1420.00,1497.00 1420.00,1497.00
             1420.00,1497.00 1400.00,1497.00 1400.00,1497.00
             1400.00,1497.00 1385.00,1496.00 1385.00,1496.00
             1385.00,1496.00 1364.00,1496.00 1364.00,1496.00
             1364.00,1496.00 1349.00,1495.00 1349.00,1495.00
             1349.00,1495.00 1261.00,1493.00 1261.00,1493.00
             1261.00,1493.00 1245.00,1492.00 1245.00,1492.00
             1245.00,1492.00 1191.00,1491.00 1191.00,1491.00
             1191.00,1491.00 1175.00,1490.00 1175.00,1490.00
             1175.00,1490.00 1156.00,1490.00 1156.00,1490.00
             1156.00,1490.00 1140.00,1489.00 1140.00,1489.00
             1140.00,1489.00 1121.00,1489.00 1121.00,1489.00
             1121.00,1489.00 1105.00,1488.00 1105.00,1488.00
             1105.00,1488.00 1086.00,1488.00 1086.00,1488.00
             1086.00,1488.00 1069.00,1487.00 1069.00,1487.00
             1069.00,1487.00 1049.00,1487.00 1049.00,1487.00
             1049.00,1487.00 1034.00,1486.00 1034.00,1486.00
             1034.00,1486.00 1014.00,1486.00 1014.00,1486.00
             1014.00,1486.00 1000.00,1485.00 1000.00,1485.00
             1000.00,1485.00 946.00,1484.00 946.00,1484.00
             946.00,1484.00 930.00,1483.00 930.00,1483.00
             930.00,1483.00 911.00,1483.00 911.00,1483.00
             911.00,1483.00 895.00,1482.00 895.00,1482.00
             895.00,1482.00 876.00,1482.00 876.00,1482.00
             876.00,1482.00 860.00,1481.00 860.00,1481.00
             860.00,1481.00 841.00,1481.00 841.00,1481.00
             841.00,1481.00 824.00,1480.00 824.00,1480.00
             824.00,1480.00 804.00,1480.00 804.00,1480.00
             804.00,1480.00 791.00,1479.00 791.00,1479.00
             791.00,1479.00 771.00,1479.00 771.00,1479.00
             771.00,1479.00 755.00,1478.00 755.00,1478.00
             755.00,1478.00 736.00,1478.00 736.00,1478.00
             736.00,1478.00 720.00,1477.00 720.00,1477.00
             720.00,1477.00 700.00,1477.00 700.00,1477.00
             700.00,1477.00 683.00,1476.00 683.00,1476.00
             683.00,1476.00 630.00,1475.00 630.00,1475.00
             630.00,1475.00 613.00,1474.00 613.00,1474.00
             613.00,1474.00 560.00,1473.00 560.00,1473.00
             560.00,1473.00 543.00,1472.00 543.00,1472.00
             543.00,1472.00 523.00,1472.00 523.00,1472.00
             523.00,1472.00 510.00,1471.00 510.00,1471.00
             510.00,1471.00 490.00,1471.00 490.00,1471.00
             490.00,1471.00 474.00,1470.00 474.00,1470.00
             474.00,1470.00 455.00,1470.00 455.00,1470.00
             455.00,1470.00 439.00,1469.00 439.00,1469.00
             439.00,1469.00 420.00,1469.00 420.00,1469.00
             420.00,1469.00 404.00,1468.00 404.00,1468.00
             404.00,1468.00 385.00,1468.00 385.00,1468.00
             385.00,1468.00 369.00,1467.00 369.00,1467.00
             369.00,1467.00 350.00,1467.00 350.00,1467.00
             350.00,1467.00 333.00,1466.00 333.00,1466.00
             333.00,1466.00 313.00,1466.00 313.00,1466.00
             313.00,1466.00 298.00,1465.00 298.00,1465.00
             298.00,1465.00 278.00,1465.00 278.00,1465.00
             278.00,1465.00 263.00,1464.00 263.00,1464.00
             263.00,1464.00 243.00,1464.00 243.00,1464.00
             243.00,1464.00 228.00,1463.00 228.00,1463.00
             228.00,1463.00 140.00,1461.00 140.00,1461.00
             140.00,1461.00 123.00,1460.00 123.00,1460.00
             123.00,1460.00 103.00,1460.00 103.00,1460.00
             103.00,1460.00 88.00,1459.00 88.00,1459.00
             88.00,1459.00 58.00,1458.18 58.00,1458.18
             58.00,1458.18 16.00,1461.00 16.00,1461.00 Z
           M 658.00,1588.00
           C 658.00,1588.00 644.00,1588.00 644.00,1588.00
             644.43,1584.05 645.29,1573.04 640.87,1571.17
             638.44,1570.14 636.62,1571.96 635.74,1574.06
             635.00,1575.80 634.03,1586.64 634.00,1589.00
             634.00,1589.00 634.83,1616.00 634.83,1616.00
             635.14,1619.04 634.71,1624.19 638.21,1625.60
             641.02,1626.74 642.82,1624.29 643.61,1621.96
             644.91,1618.12 645.00,1612.07 645.00,1608.00
             647.95,1608.00 655.96,1607.20 657.83,1609.57
             659.28,1611.42 659.07,1616.67 658.91,1619.00
             658.37,1626.90 657.60,1637.53 649.00,1640.74
             646.13,1641.81 643.03,1641.97 640.00,1642.00
             634.64,1642.05 629.36,1642.02 625.39,1637.78
             621.39,1633.50 621.31,1628.38 620.58,1623.00
             620.58,1623.00 620.00,1583.00 620.00,1583.00
             620.06,1578.07 621.18,1566.16 623.44,1562.02
             626.40,1556.59 632.27,1555.43 638.00,1555.09
             640.54,1554.94 642.52,1555.16 645.00,1555.62
             647.73,1556.11 650.60,1556.69 652.79,1558.51
             659.65,1564.22 658.00,1579.72 658.00,1588.00 Z
           M 743.00,1555.29
           C 748.42,1554.80 756.55,1555.26 760.58,1559.39
             764.59,1563.50 764.64,1569.70 765.17,1575.00
             765.17,1575.00 766.00,1614.00 766.00,1614.00
             765.93,1619.88 764.90,1632.30 761.35,1636.89
             757.21,1642.25 751.10,1642.07 745.00,1642.00
             738.63,1641.92 733.61,1641.17 730.28,1635.00
             728.09,1630.96 727.06,1621.68 727.21,1617.00
             727.21,1617.00 727.21,1574.00 727.21,1574.00
             728.12,1568.88 728.65,1563.18 732.39,1559.23
             735.37,1556.08 738.98,1555.90 743.00,1555.29 Z
           M 1085.00,1583.00
           C 1085.00,1583.00 1072.00,1583.00 1072.00,1583.00
             1072.82,1579.58 1073.59,1575.33 1071.15,1572.32
             1068.36,1568.88 1063.73,1570.72 1063.11,1577.00
             1061.78,1590.60 1077.13,1590.47 1083.49,1599.04
             1086.26,1602.78 1085.99,1606.61 1086.00,1611.00
             1086.02,1621.26 1088.51,1637.27 1076.00,1641.20
             1073.65,1641.94 1071.43,1641.97 1069.00,1642.00
             1054.26,1642.17 1050.17,1637.87 1050.00,1623.00
             1049.97,1620.37 1049.55,1614.76 1051.74,1612.99
             1053.53,1611.55 1060.52,1612.00 1063.00,1612.00
             1063.00,1615.50 1062.44,1621.96 1064.74,1624.68
             1066.99,1627.35 1070.01,1626.74 1071.69,1623.85
             1073.24,1621.17 1073.36,1614.87 1072.26,1612.00
             1069.24,1604.12 1059.15,1602.92 1053.72,1596.68
             1048.85,1591.09 1049.99,1582.00 1050.00,1575.00
             1050.01,1569.93 1050.00,1564.24 1053.43,1560.11
             1058.68,1553.78 1076.03,1553.35 1081.72,1559.23
             1086.47,1564.12 1085.00,1576.39 1085.00,1583.00 Z
           M 444.00,1600.00
           C 448.53,1610.75 448.09,1614.91 449.17,1626.00
             449.17,1626.00 451.00,1641.00 451.00,1641.00
             448.18,1641.00 438.64,1641.54 436.74,1640.01
             435.01,1638.61 434.72,1634.16 434.42,1632.00
             433.68,1626.55 434.05,1613.15 430.49,1609.31
             428.97,1607.67 427.96,1607.60 426.00,1607.00
             426.00,1607.00 426.00,1641.00 426.00,1641.00
             426.00,1641.00 411.00,1641.00 411.00,1641.00
             411.00,1641.00 411.00,1557.00 411.00,1557.00
             411.00,1557.00 434.00,1557.00 434.00,1557.00
             437.18,1557.04 440.16,1557.08 442.96,1558.85
             451.18,1564.06 450.39,1580.52 449.28,1589.00
             448.58,1594.37 449.25,1597.11 444.00,1600.00 Z
           M 551.00,1557.00
           C 551.00,1557.00 551.00,1571.00 551.00,1571.00
             551.00,1571.00 534.00,1571.00 534.00,1571.00
             534.00,1571.00 534.00,1591.00 534.00,1591.00
             534.00,1591.00 551.00,1591.00 551.00,1591.00
             551.00,1591.00 551.00,1605.00 551.00,1605.00
             551.00,1605.00 534.00,1605.00 534.00,1605.00
             534.00,1605.00 534.00,1625.00 534.00,1625.00
             534.00,1625.00 551.00,1625.00 551.00,1625.00
             551.00,1625.00 551.00,1641.00 551.00,1641.00
             551.00,1641.00 519.00,1641.00 519.00,1641.00
             519.00,1641.00 519.00,1557.00 519.00,1557.00
             519.00,1557.00 551.00,1557.00 551.00,1557.00 Z
           M 867.00,1601.00
           C 867.00,1601.00 870.20,1607.00 870.20,1607.00
             870.20,1607.00 875.00,1641.00 875.00,1641.00
             875.00,1641.00 859.00,1641.00 859.00,1641.00
             859.00,1641.00 857.09,1623.00 857.09,1623.00
             856.58,1616.01 857.57,1608.42 849.00,1607.00
             849.00,1607.00 849.00,1641.00 849.00,1641.00
             849.00,1641.00 835.00,1641.00 835.00,1641.00
             835.00,1641.00 835.00,1557.00 835.00,1557.00
             835.00,1557.00 858.00,1557.00 858.00,1557.00
             861.26,1557.05 864.06,1557.13 866.90,1559.01
             870.13,1561.14 871.48,1564.36 872.32,1568.00
             873.65,1573.75 873.61,1591.73 871.03,1596.89
             869.85,1599.26 869.08,1599.62 867.00,1601.00 Z
           M 943.00,1641.00
           C 943.00,1641.00 943.00,1557.00 943.00,1557.00
             943.00,1557.00 964.00,1557.00 964.00,1557.00
             969.90,1557.03 975.50,1557.41 978.91,1563.04
             981.38,1567.11 981.98,1574.30 982.00,1579.00
             982.00,1579.00 982.00,1617.00 982.00,1617.00
             981.99,1622.61 981.42,1631.15 978.01,1635.79
             975.44,1639.28 971.98,1639.77 968.00,1640.41
             968.00,1640.41 943.00,1641.00 943.00,1641.00 Z
           M 744.31,1571.04
           C 741.13,1574.42 741.06,1581.42 741.00,1586.00
             741.00,1586.00 741.00,1610.00 741.00,1610.00
             741.05,1613.66 741.27,1624.80 745.21,1626.16
             751.70,1628.39 750.85,1618.40 751.09,1615.00
             751.09,1615.00 752.00,1592.00 752.00,1592.00
             752.00,1592.00 751.04,1581.00 751.04,1581.00
             750.82,1576.13 751.69,1568.81 744.31,1571.04 Z
           M 426.00,1571.00
           C 426.00,1571.00 426.00,1594.00 426.00,1594.00
             435.59,1593.67 435.09,1589.14 435.00,1581.00
             434.97,1578.50 435.02,1574.66 433.18,1572.74
             431.39,1570.88 428.37,1571.06 426.00,1571.00 Z
           M 849.00,1571.00
           C 849.00,1571.00 849.00,1594.00 849.00,1594.00
             851.37,1593.97 854.46,1594.23 856.34,1592.40
             859.12,1589.50 860.07,1576.12 856.34,1572.60
             854.54,1570.79 851.42,1571.03 849.00,1571.00 Z
           M 957.00,1571.00
           C 957.00,1571.00 957.00,1625.00 957.00,1625.00
             959.46,1625.00 964.17,1625.51 965.83,1623.43
             967.33,1621.53 967.97,1612.65 967.95,1610.00
             967.95,1610.00 967.95,1583.00 967.95,1583.00
             967.73,1580.43 967.14,1574.62 965.26,1572.82
             963.29,1570.94 959.55,1571.06 957.00,1571.00 Z" />
</svg>
