<?xml version="1.0" encoding="UTF-8" standalone="no"?>
<!DOCTYPE svg PUBLIC "-//W3C//DTD SVG 20010904//EN"
              "http://www.w3.org/TR/2001/REC-SVG-20010904/DTD/svg10.dtd">

<svg xmlns="http://www.w3.org/2000/svg"
     width="33.0278in" height="19.9444in"
     viewBox="0 0 2378 1436">
  <path id="Selection"
        fill="#ffffff" stroke="black" stroke-width="0"
        d="M 270.00,697.00
           C 271.62,690.10 275.26,682.62 277.99,676.00
             277.99,676.00 294.70,637.00 294.70,637.00
             294.70,637.00 347.75,525.00 347.75,525.00
             403.20,414.11 461.62,304.97 520.69,196.00
             520.69,196.00 583.30,82.00 583.30,82.00
             583.30,82.00 598.24,55.00 598.24,55.00
             600.25,50.94 602.16,46.45 599.83,42.04
             597.25,37.18 590.04,34.85 585.00,33.65
             571.55,30.46 557.73,30.84 544.00,31.00
             544.00,31.00 535.00,31.83 535.00,31.83
             517.95,33.48 497.87,35.33 484.01,46.52
             478.42,51.03 475.15,57.78 471.77,64.00
             471.77,64.00 458.58,88.00 458.58,88.00
             458.58,88.00 404.69,186.00 404.69,186.00
             404.69,186.00 326.31,331.00 326.31,331.00
             326.31,331.00 257.74,463.00 257.74,463.00
             236.42,504.31 215.09,545.75 195.69,588.00
             195.69,588.00 147.58,696.00 147.58,696.00
             139.23,715.88 127.25,747.56 127.00,769.00
             126.94,774.22 126.53,780.11 128.48,785.00
             134.67,800.59 158.31,802.98 173.00,803.00
             173.00,803.00 187.00,803.00 187.00,803.00
             205.03,802.97 231.61,797.20 248.00,789.69
             265.73,781.57 280.57,768.79 296.00,757.13
             312.79,744.44 329.47,733.33 348.00,723.31
             367.51,712.76 394.10,704.11 416.00,700.43
             416.00,700.43 431.00,698.72 431.00,698.72
             431.00,698.72 450.00,697.00 450.00,697.00
             450.00,697.00 467.00,697.00 467.00,697.00
             467.00,697.00 477.00,697.91 477.00,697.91
             507.21,700.12 537.03,708.89 561.00,728.00
             569.70,734.94 577.44,743.10 584.11,752.00
             587.39,756.38 592.45,765.58 596.09,768.35
             601.83,772.72 618.66,774.91 626.00,775.00
             649.09,775.27 671.01,773.94 693.00,765.95
             700.77,763.12 711.67,758.70 714.18,750.00
             716.83,740.83 704.18,725.66 698.56,719.00
             676.92,693.35 646.60,677.81 615.00,668.02
             585.58,658.92 554.58,655.00 524.00,652.91
             524.00,652.91 514.00,652.00 514.00,652.00
             514.00,652.00 470.00,652.00 470.00,652.00
             470.00,652.00 458.00,653.00 458.00,653.00
             458.00,653.00 450.00,653.00 450.00,653.00
             428.96,654.53 407.74,657.51 387.00,661.39
             345.61,669.14 308.27,678.95 270.00,697.00 Z
           M 196.00,1298.00
           C 196.00,1298.00 196.00,1290.00 196.00,1290.00
             196.04,1265.09 208.77,1236.96 219.75,1215.00
             238.91,1176.68 263.92,1141.52 292.92,1110.00
             382.52,1012.60 490.12,951.60 618.00,919.63
             653.71,910.70 688.43,905.37 725.00,901.83
             725.00,901.83 747.00,899.96 747.00,899.96
             747.00,899.96 758.00,899.96 758.00,899.96
             758.00,899.96 770.00,899.00 770.00,899.00
             770.00,899.00 793.00,899.00 793.00,899.00
             793.00,899.00 810.00,900.00 810.00,900.00
             824.66,900.02 839.48,902.01 854.00,904.00
             869.54,906.13 884.93,909.82 900.00,914.14
             904.39,915.40 916.69,919.04 919.78,921.65
             923.19,924.52 924.15,929.82 925.11,934.00
             927.89,946.06 928.02,955.81 928.00,968.00
             927.97,984.80 922.58,1007.82 917.72,1024.00
             908.50,1054.74 895.88,1084.76 882.70,1114.00
             882.70,1114.00 865.80,1154.00 865.80,1154.00
             861.75,1164.13 857.13,1176.00 857.00,1187.00
             856.90,1195.95 856.57,1200.33 859.70,1209.00
             862.54,1216.89 868.42,1224.62 873.75,1231.00
             884.00,1243.25 905.72,1261.25 919.00,1270.71
             930.36,1278.80 946.70,1288.83 961.00,1288.77
             964.59,1289.04 969.55,1289.16 973.00,1288.77
             984.61,1286.44 1001.10,1276.25 1011.00,1269.67
             1036.92,1252.42 1060.54,1231.51 1083.00,1210.04
             1083.00,1210.04 1116.00,1179.83 1116.00,1179.83
             1116.00,1179.83 1179.00,1122.84 1179.00,1122.84
             1212.84,1092.61 1261.59,1051.94 1299.00,1027.00
             1322.37,1011.42 1344.17,998.87 1371.00,990.00
             1375.81,988.41 1395.80,983.08 1399.98,983.31
             1406.27,983.67 1407.47,996.00 1408.58,1001.00
             1408.58,1001.00 1418.73,1062.00 1418.73,1062.00
             1423.69,1096.40 1429.74,1133.05 1443.86,1165.00
             1460.40,1202.42 1491.97,1236.97 1525.00,1260.57
             1538.38,1270.14 1553.60,1278.76 1569.00,1284.58
             1592.15,1293.31 1603.85,1294.04 1628.00,1294.00
             1640.26,1293.98 1652.28,1290.76 1664.00,1287.42
             1690.79,1279.78 1717.18,1266.49 1741.00,1252.20
             1818.64,1205.62 1886.81,1145.10 1964.00,1097.81
             1964.00,1097.81 1994.00,1081.26 1994.00,1081.26
             1994.00,1081.26 2008.00,1075.00 2008.00,1075.00
             2008.17,1082.84 2011.17,1095.17 2013.13,1103.00
             2016.69,1117.27 2020.93,1131.33 2026.40,1145.00
             2052.89,1211.23 2099.22,1265.87 2153.00,1311.73
             2169.18,1325.53 2204.97,1353.17 2223.00,1362.97
             2227.93,1365.65 2236.43,1369.39 2242.00,1369.81
             2245.37,1370.07 2248.49,1369.56 2249.57,1365.89
             2250.87,1361.46 2248.18,1355.88 2246.24,1352.00
             2241.45,1342.42 2233.10,1332.52 2225.00,1325.58
             2225.00,1325.58 2205.00,1309.43 2205.00,1309.43
             2205.00,1309.43 2174.00,1286.91 2174.00,1286.91
             2155.48,1269.74 2144.56,1251.66 2132.42,1230.00
             2117.89,1204.06 2111.65,1173.97 2106.42,1145.00
             2101.37,1116.99 2097.52,1092.59 2081.95,1068.00
             2071.42,1051.38 2058.11,1036.65 2043.00,1024.08
             2017.25,1002.67 1990.07,985.60 1956.00,983.18
             1946.01,982.47 1929.59,986.80 1920.00,990.00
             1893.60,998.80 1870.10,1011.96 1847.00,1027.33
             1847.00,1027.33 1796.00,1063.85 1796.00,1063.85
             1747.33,1099.35 1699.73,1136.36 1648.00,1167.40
             1623.64,1182.01 1593.58,1197.95 1566.00,1204.87
             1559.94,1206.40 1542.68,1210.03 1537.02,1209.69
             1531.25,1209.33 1530.39,1201.57 1529.15,1197.00
             1529.15,1197.00 1520.75,1155.00 1520.75,1155.00
             1514.25,1115.99 1510.52,1071.93 1496.58,1035.00
             1489.69,1016.76 1481.00,1001.74 1469.58,986.00
             1457.20,968.96 1439.30,951.95 1423.00,938.61
             1396.42,916.86 1368.55,901.29 1334.00,897.83
             1329.46,897.38 1327.90,896.90 1323.00,897.01
             1287.22,897.83 1253.07,914.36 1223.00,932.40
             1169.02,964.79 1121.62,1005.87 1075.00,1047.83
             1075.00,1047.83 1038.00,1081.91 1038.00,1081.91
             1038.00,1081.91 1015.00,1103.00 1015.00,1103.00
             1019.58,1088.99 1025.83,1059.49 1026.00,1045.00
             1026.19,1028.64 1026.15,1015.10 1022.11,999.00
             1011.86,958.21 980.45,924.16 949.00,897.92
             926.27,878.96 900.96,861.69 874.00,849.31
             807.26,818.66 744.25,813.16 672.00,814.00
             672.00,814.00 654.00,815.00 654.00,815.00
             654.00,815.00 644.00,815.91 644.00,815.91
             608.30,818.36 572.84,823.85 538.00,832.12
             406.19,863.37 287.53,927.05 195.93,1028.00
             168.95,1057.73 144.96,1091.50 126.22,1127.00
             113.30,1151.48 98.04,1184.89 98.00,1213.00
             98.00,1213.00 98.00,1228.00 98.00,1228.00
             98.38,1259.99 124.35,1294.70 147.00,1315.17
             182.48,1347.22 223.67,1372.09 271.00,1381.55
             296.08,1386.57 313.93,1386.04 339.00,1386.00
             359.62,1385.97 392.85,1379.61 413.00,1374.15
             525.43,1343.70 605.43,1266.63 666.32,1170.00
             687.01,1137.16 700.98,1108.45 716.28,1073.00
             716.28,1073.00 725.71,1048.00 725.71,1048.00
             727.72,1042.21 729.78,1039.48 728.32,1033.00
             724.42,1015.66 699.98,996.85 687.00,985.07
             675.77,974.88 656.71,959.05 641.00,958.09
             637.95,957.91 634.02,958.06 631.84,960.51
             630.30,962.23 626.37,973.17 625.32,976.00
             625.32,976.00 614.00,1003.00 614.00,1003.00
             593.70,1050.05 563.81,1100.89 532.00,1141.00
             472.56,1215.95 392.98,1277.26 297.00,1294.58
             266.53,1300.07 252.37,1300.05 222.00,1300.00
             222.00,1300.00 196.00,1298.00 196.00,1298.00 Z" />
</svg>
